<svg width="48" height="48" viewBox="0 0 48 48" fill="none" xmlns="http://www.w3.org/2000/svg">
<path d="M24 1C27.3137 1 30 3.68629 30 7V9.51465L31.7783 7.73633C34.1215 5.39338 37.9206 5.39325 40.2637 7.73633C42.6068 10.0794 42.6066 13.8785 40.2637 16.2217L38.4854 18H41C44.3137 18 47 20.6863 47 24C47 27.3137 44.3137 30 41 30H38.4854L40.2637 31.7783C42.6066 34.1215 42.6068 37.9206 40.2637 40.2637C37.9206 42.6068 34.1215 42.6066 31.7783 40.2637L30 38.4854V41C30 44.3137 27.3137 47 24 47C20.6863 47 18 44.3137 18 41V38.4854L16.2217 40.2637C13.8785 42.6067 10.0794 42.6068 7.73633 40.2637C5.39324 37.9206 5.39335 34.1215 7.73633 31.7783L9.51465 30H7C3.68629 30 1 27.3137 1 24C1 20.6863 3.68629 18 7 18H9.51465L7.73633 16.2217C5.39336 13.8785 5.39324 10.0794 7.73633 7.73633C10.0794 5.39325 13.8785 5.39336 16.2217 7.73633L18 9.51465V7C18 3.68629 20.6863 1 24 1ZM24 18C20.6863 18 18 20.6863 18 24C18 27.3137 20.6863 30 24 30C27.3137 30 30 27.3137 30 24C30 20.6863 27.3137 18 24 18Z" fill="#FFF1D4"/>
</svg>
