<svg width="48" height="48" viewBox="0 0 48 48" fill="none" xmlns="http://www.w3.org/2000/svg">
<path d="M15 20C19.9706 20 24 24.0294 24 29V35C24 39.9706 19.9706 44 15 44C10.0294 44 6 39.9706 6 35V29C6 24.0294 10.0294 20 15 20ZM34 28C38.4183 28 42 31.5817 42 36C42 40.4183 38.4183 44 34 44H32C27.5817 44 24 40.4183 24 36C24 31.5817 27.5817 28 32 28H34ZM33 4C37.9706 4 42 8.02944 42 13V19C42 23.9706 37.9706 28 33 28C28.0294 28 24 23.9706 24 19V13C24 8.02944 28.0294 4 33 4ZM16 4C20.4183 4 24 7.58172 24 12C24 16.4183 20.4183 20 16 20H14C9.58172 20 6 16.4183 6 12C6 7.58172 9.58172 4 14 4H16Z" fill="#FFF1D4"/>
</svg>
