<svg width="57" height="60" viewBox="0 0 57 60" fill="none" xmlns="http://www.w3.org/2000/svg">
<g clip-path="url(#clip0_393_279)">
<path d="M32.5528 55.7009L32.5554 55.6983L32.5541 55.6996L32.5528 55.7009ZM54.7353 21.0709C51.7786 10.7825 45.3944 3.34707 33.977 0.539588C32.6385 0.210575 31.2841 -0.244371 29.3765 0.157828C36.1095 1.74882 41.4117 4.75741 45.0983 9.83897C50.8733 17.7999 52.8561 26.7175 51.9408 36.2411C51.8571 37.1114 52.1301 38.1663 51.2129 38.974C49.7681 31.1404 47.4926 25.8089 44.8234 24.2977C49.6818 35.6008 49.931 46.6039 43.3523 57.2438C43.7228 57.489 43.9312 57.3902 44.1086 57.2075C54.1887 46.8631 58.7444 35.0199 54.7353 21.0709Z" fill="#B76B4B"/>
<path d="M27.2717 29.5737C23.13 25.0552 18.9666 20.5453 17.2463 14.5895C17.1586 14.2855 17.0913 13.787 16.5849 13.9763C16.0785 14.1662 16.2645 14.7154 16.339 15.0457C16.8744 17.4121 17.4876 19.758 18.6 21.9642C20.565 25.8596 23.2718 29.2935 26.0327 32.6996C28.8272 36.148 31.7727 39.4981 33.9948 43.3256C38.1609 50.4999 36.9753 52.9184 32.5033 59.3411C45.2579 53.7551 47.6798 46.7318 27.2717 29.5737ZM12.3022 24.3148C9.629 27.5838 7.56313 30.6946 6.0373 34.0981C2.51944 41.9463 4.17715 48.4672 11.0526 54.0314C12.2652 55.0125 13.4772 56.0147 15.5108 56.7742C14.4643 55.3923 13.7126 54.4356 13.0005 53.4531C0.566985 42.3676 12.2976 26.2414 12.3022 24.3148ZM28.3142 22.4014C23.7387 18.9919 20.4635 14.7859 19.1097 9.37471C18.8308 8.26042 18.6086 7.13426 18.36 6.01338L17.934 6.02524C17.9057 6.56459 17.8358 7.10525 17.8562 7.64261C18.0118 11.7259 19.2944 15.475 21.6583 18.9022C24.5655 23.1174 28.4566 26.5038 32.2138 30.0029C36.5599 34.0513 40.7068 38.2322 42.5827 43.9124C42.5973 43.9566 42.7819 43.9507 43.0219 43.9902C42.6282 38.43 40.8769 33.4388 36.8665 29.2625C34.3331 26.6244 31.2518 24.5904 28.3142 22.4014ZM16.7887 0.463025C8.91883 0.356212 -2.58095 14.0079 0.517532 23.6422C1.40969 18.9253 3.1274 14.5182 5.74519 10.4494C8.41374 6.30151 11.7423 2.74238 16.7887 0.463025ZM9.52614 21.1572C9.70219 20.8644 9.97254 20.4952 9.58087 20.2334C9.18457 19.9677 8.91422 20.358 8.67222 20.5915C7.42531 21.7901 6.14873 22.9644 4.96183 24.2139C0.41071 29.0034 -0.275716 34.4205 2.18381 40.317C2.08029 34.7172 4.35387 29.8196 7.15101 25.073C7.92579 23.7583 8.7408 22.4653 9.52614 21.1572Z" fill="#B76B4B"/>
</g>
<defs>
<clipPath id="clip0_393_279">
<rect width="56.1844" height="59.3411" fill="white"/>
</clipPath>
</defs>
</svg>
