<svg width="24" height="24" viewBox="0 0 24 24" fill="none" xmlns="http://www.w3.org/2000/svg">
<path d="M2.33208 2.659C2.46008 2.408 2.71808 2.25 3.00008 2.25H8.00008C8.24108 2.25 8.46708 2.366 8.60808 2.561L13.5441 9.395L20.4701 2.47C20.7631 2.177 21.2371 2.177 21.5301 2.47C21.8231 2.763 21.8231 3.237 21.5301 3.53L14.4341 10.627L21.6081 20.561C21.7731 20.789 21.7961 21.091 21.6681 21.341C21.5401 21.592 21.2821 21.75 21.0001 21.75H16.0001C15.7591 21.75 15.5331 21.634 15.3921 21.439L10.4561 14.605L3.53008 21.53C3.23708 21.823 2.76308 21.823 2.47008 21.53C2.17708 21.237 2.17708 20.763 2.47008 20.47L9.56608 13.373L2.39208 3.439C2.22708 3.211 2.20408 2.909 2.33208 2.659ZM4.46708 3.75L16.3831 20.25H19.5331L7.61708 3.75H4.46708Z" fill="white"/>
</svg>
