<svg width="48" height="48" viewBox="0 0 48 48" fill="none" xmlns="http://www.w3.org/2000/svg">
<path d="M8.45605 8.3418C11.5802 5.2181 16.6455 5.21789 19.7695 8.3418L24.1123 12.6846L28.1416 8.65625C31.2658 5.53206 36.3319 5.53206 39.4561 8.65625C42.5798 11.7804 42.5799 16.8456 39.4561 19.9697L35.4258 23.999L39.5684 28.1416C42.6924 31.2658 42.6925 36.3309 39.5684 39.4551C36.4442 42.5792 31.3791 42.5791 28.2549 39.4551L24.1123 35.3125L19.6562 39.7686C16.532 42.8926 11.4669 42.8927 8.34277 39.7686C5.21876 36.6444 5.21876 31.5792 8.34277 28.4551L12.7988 23.999L8.45605 19.6562C5.33186 16.5321 5.33186 11.466 8.45605 8.3418Z" fill="#FFF1D4"/>
</svg>
