<svg width="161" height="32" viewBox="0 0 161 32" fill="none" xmlns="http://www.w3.org/2000/svg">
<g clip-path="url(#clip0_492_448)">
<path d="M46.5435 20.562L48.2938 19.8411V13.9705H40.7926V19.8411L42.6459 20.562V20.974H37.0861V20.562L38.8364 19.8411V7.27591L36.9832 6.55496V6.14299H42.5429V6.55496L40.7926 7.27591V12.8964H48.2938V7.27591L46.4406 6.55496V6.14299H51.7797V6.51082L50.25 7.27591V19.8411L52.1033 20.562V20.974H46.5435V20.562ZM61.9873 19.5762L63.8405 20.0912V20.459L61.6637 21.1359C61.2322 21.234 60.8694 21.1849 60.5753 20.9887C60.2811 20.8024 60.134 20.4787 60.134 20.0177C59.2613 20.822 58.2366 21.2241 57.06 21.2241C56.0892 21.2241 55.3636 20.974 54.8832 20.4738C54.4027 19.9735 54.1625 19.3457 54.1625 18.5905C54.1625 18.0117 54.2899 17.5066 54.5449 17.075C54.7998 16.6336 55.1234 16.2805 55.5156 16.0156C55.9078 15.7606 56.3785 15.5448 56.9276 15.3682C57.4865 15.1917 58.0209 15.0691 58.5308 15.0004C59.0309 14.9317 59.5653 14.8925 60.134 14.8827V13.9116C60.134 12.9798 59.9869 12.3275 59.6928 11.9548C59.3986 11.582 58.9083 11.3956 58.2219 11.3956C57.7022 11.3956 57.0943 11.479 56.3981 11.6458L55.3391 13.9705H54.839V11.1161C55.447 10.9003 56.0843 10.7286 56.7511 10.6011C57.4277 10.4834 58.0209 10.4246 58.5308 10.4246C59.629 10.4246 60.4772 10.6502 61.0753 11.1014C61.6833 11.5428 61.9873 12.2735 61.9873 13.2937V19.5762ZM57.9131 20.0471C58.2955 20.0471 58.6877 19.9588 59.0897 19.7822C59.4918 19.5959 59.8399 19.3408 60.134 19.0171V15.7066C58.7907 15.7655 57.766 16.0401 57.06 16.5306C56.3638 17.0112 56.0157 17.6292 56.0157 18.3845C56.0157 18.9632 56.1971 19.385 56.5599 19.6498C56.9325 19.9147 57.3836 20.0471 57.9131 20.0471ZM67.9883 21.3713C67.3313 21.7734 67.0028 22.411 67.0028 23.284C67.0028 23.6764 67.1008 24.005 67.297 24.2698C67.4931 24.5346 67.7431 24.7455 68.0471 24.9025C68.3511 25.0594 68.6844 25.1722 69.0472 25.2409C69.4199 25.3095 69.7778 25.3439 70.121 25.3439C70.474 25.3439 70.827 25.3095 71.18 25.2409C71.5428 25.1722 71.8663 25.0692 72.1507 24.9319C72.4351 24.7946 72.6704 24.6229 72.8567 24.4169C73.0332 24.2109 73.1214 23.9706 73.1214 23.696C73.1214 23.2742 73.0185 22.9358 72.8126 22.6808C72.5969 22.4257 72.3076 22.2197 71.9448 22.0628C71.582 21.9157 71.1554 21.8029 70.6652 21.7244C70.1749 21.6557 69.6552 21.592 69.1061 21.5331C68.8708 21.5037 68.6599 21.4743 68.4736 21.4448C68.2873 21.4252 68.1255 21.4007 67.9883 21.3713ZM70.018 18.1785C69.3218 18.1785 68.6893 18.0706 68.1206 17.8548C67.699 18.1294 67.4882 18.4826 67.4882 18.9142C67.4882 19.1594 67.6303 19.3556 67.9147 19.5027C68.1991 19.6498 68.5668 19.7577 69.0178 19.8264C69.4787 19.8852 69.9837 19.9441 70.5328 20.0029C71.0819 20.052 71.631 20.1354 72.1801 20.2531C72.7292 20.3708 73.2293 20.5277 73.6804 20.7239C74.1412 20.9201 74.5138 21.2192 74.7982 21.6214C75.0826 22.0138 75.2247 22.4993 75.2247 23.078C75.2247 23.539 75.112 23.9608 74.8864 24.3434C74.6707 24.7259 74.3815 25.0398 74.0187 25.285C73.6657 25.5302 73.244 25.7362 72.7537 25.903C72.2733 26.0697 71.783 26.1923 71.2829 26.2708C70.7828 26.3395 70.2778 26.3738 69.768 26.3738C68.3265 26.3738 67.1989 26.1237 66.385 25.6234C65.5712 25.1232 65.1643 24.4709 65.1643 23.6666C65.1643 22.5091 65.8065 21.6655 67.091 21.1359C66.2968 20.871 65.8997 20.3708 65.8997 19.6351C65.8997 18.7817 66.4194 18.0706 67.4588 17.5017C66.8802 17.1387 66.4341 16.6728 66.1203 16.1039C65.8065 15.535 65.6496 14.9317 65.6496 14.2942C65.6496 13.8037 65.7477 13.3329 65.9438 12.8817C66.1399 12.4207 66.4145 12.0087 66.7675 11.6458C67.1303 11.273 67.5911 10.9788 68.15 10.763C68.7188 10.5374 69.3414 10.4246 70.018 10.4246C70.6063 10.4246 71.1456 10.5079 71.6359 10.6747H75.6807V11.0867L73.4744 11.8812C74.0824 12.5776 74.3864 13.3819 74.3864 14.2942C74.3864 14.7846 74.2834 15.2603 74.0775 15.7214C73.8814 16.1824 73.6068 16.5944 73.2538 16.9573C72.891 17.3202 72.4302 17.6145 71.8712 17.8401C71.3123 18.0657 70.6946 18.1785 70.018 18.1785ZM67.7382 14.2942C67.7382 15.2162 67.9392 15.9224 68.3413 16.4129C68.7433 16.9033 69.3022 17.1486 70.018 17.1486C70.724 17.1486 71.278 16.9033 71.68 16.4129C72.0821 15.9126 72.2831 15.2064 72.2831 14.2942C72.2831 13.3819 72.0821 12.6806 71.68 12.1902C71.278 11.7095 70.724 11.4692 70.018 11.4692C69.3022 11.4692 68.7433 11.7095 68.3413 12.1902C67.9392 12.6806 67.7382 13.3819 67.7382 14.2942ZM84.741 19.5762L86.5943 20.0912V20.459L84.4174 21.1359C83.986 21.234 83.6232 21.1849 83.329 20.9887C83.0348 20.8024 82.8878 20.4787 82.8878 20.0177C82.0151 20.822 80.9904 21.2241 79.8137 21.2241C78.843 21.2241 78.1174 20.974 77.6369 20.4738C77.1564 19.9735 76.9162 19.3457 76.9162 18.5905C76.9162 18.0117 77.0437 17.5066 77.2986 17.075C77.5536 16.6336 77.8771 16.2805 78.2694 16.0156C78.6616 15.7606 79.1322 15.5448 79.6814 15.3682C80.2403 15.1917 80.7698 15.0691 81.2698 15.0004C81.7797 14.9317 82.319 14.8925 82.8878 14.8827V13.9116C82.8878 12.9798 82.7407 12.3275 82.4465 11.9548C82.1523 11.582 81.6621 11.3956 80.9757 11.3956C80.456 11.3956 79.848 11.479 79.1519 11.6458L78.0929 13.9705H77.5928V11.1161C78.2007 10.9003 78.8381 10.7286 79.5049 10.6011C80.1814 10.4834 80.7698 10.4246 81.2698 10.4246C82.3779 10.4246 83.231 10.6502 83.8291 11.1014C84.437 11.5428 84.741 12.2735 84.741 13.2937V19.5762ZM80.6668 20.0471C81.0492 20.0471 81.4414 19.9588 81.8435 19.7822C82.2455 19.5959 82.5936 19.3408 82.8878 19.0171V15.7066C81.5444 15.7655 80.5197 16.0401 79.8137 16.5306C79.1175 17.0112 78.7694 17.6292 78.7694 18.3845C78.7694 18.9632 78.9508 19.385 79.3136 19.6498C79.6863 19.9147 80.1373 20.0471 80.6668 20.0471ZM91.3156 19.8411L93.0659 20.562V20.974H87.6238V20.562L89.4771 19.8411V12.2932L87.6238 11.5575V11.1455L91.1244 10.4246L91.3156 10.6306V11.8518C91.7961 11.4104 92.355 11.0621 92.9924 10.8071C93.6297 10.5521 94.2573 10.4246 94.875 10.4246C95.7673 10.4246 96.5126 10.6992 97.1107 11.2485C97.699 11.7978 97.9932 12.6168 97.9932 13.7056V19.8411L99.8464 20.562V20.974H94.3897V20.562L96.1546 19.8411V14.3236C96.1546 13.3525 95.9781 12.6806 95.6251 12.3079C95.282 11.9351 94.6936 11.7488 93.8601 11.7488C92.86 11.7488 92.0118 12.0479 91.3156 12.6463V19.8411ZM108.701 16.9573L109.686 19.6645C110.745 19.9196 111.623 20.0471 112.319 20.0471C112.682 20.0471 113.04 20.0078 113.393 19.9294C113.746 19.8607 114.06 19.7283 114.334 19.5321C114.618 19.3457 114.844 19.1005 115.011 18.7964C115.187 18.4826 115.275 18.0902 115.275 17.6194C115.275 17.3055 115.231 17.0161 115.143 16.7513C115.055 16.4766 114.893 16.2069 114.658 15.9421C114.432 15.6674 114.118 15.3928 113.716 15.1181C113.324 14.8435 112.819 14.5345 112.201 14.1912C111.535 13.8381 110.956 13.4947 110.466 13.1612C109.985 12.8375 109.583 12.504 109.26 12.1607C108.946 11.8076 108.711 11.43 108.554 11.0278C108.407 10.6256 108.333 10.1695 108.333 9.65947C108.333 7.12878 109.912 5.86343 113.069 5.86343C114.187 5.86343 115.369 6.02038 116.614 6.33426V9.8066H116.202L115.114 7.2612C114.398 7.11407 113.756 7.0405 113.187 7.0405C112.226 7.0405 111.481 7.22196 110.951 7.58489C110.412 7.94782 110.142 8.51183 110.142 9.27693C110.142 9.55157 110.181 9.8066 110.26 10.042C110.329 10.2872 110.476 10.5374 110.701 10.7924C110.936 11.0572 111.26 11.3368 111.672 11.6311C112.084 11.9253 112.628 12.2637 113.305 12.6463C113.981 12.9994 114.569 13.3329 115.07 13.6468C115.57 13.9509 115.981 14.2647 116.305 14.5884C116.638 14.9219 116.884 15.28 117.04 15.6625C117.207 16.0451 117.29 16.4865 117.29 16.9867C117.29 17.791 117.158 18.4629 116.893 19.0024C116.619 19.5419 116.256 19.9784 115.805 20.3119C115.354 20.6454 114.829 20.8808 114.231 21.0182C113.623 21.1555 112.986 21.2241 112.319 21.2241C111.937 21.2241 111.579 21.2143 111.245 21.1947C110.912 21.1751 110.583 21.1359 110.26 21.077C109.936 21.028 109.608 20.9642 109.274 20.8857C108.941 20.7975 108.578 20.6994 108.186 20.5915V16.9573H108.701ZM127.16 19.5762L129.028 20.0912V20.459L126.851 21.1359C126.419 21.234 126.057 21.1849 125.762 20.9887C125.468 20.8024 125.321 20.4787 125.321 20.0177C124.449 20.822 123.424 21.2241 122.247 21.2241C121.276 21.2241 120.551 20.974 120.07 20.4738C119.59 19.9735 119.35 19.3457 119.35 18.5905C119.35 18.0117 119.477 17.5066 119.732 17.075C119.987 16.6336 120.311 16.2805 120.703 16.0156C121.095 15.7606 121.566 15.5448 122.115 15.3682C122.664 15.1917 123.193 15.0691 123.703 15.0004C124.213 14.9317 124.752 14.8925 125.321 14.8827V13.9116C125.321 12.9798 125.174 12.3275 124.88 11.9548C124.576 11.582 124.086 11.3956 123.409 11.3956C122.889 11.3956 122.281 11.479 121.585 11.6458L120.526 13.9705H120.026V11.1161C120.634 10.9003 121.272 10.7286 121.938 10.6011C122.605 10.4834 123.193 10.4246 123.703 10.4246C124.811 10.4246 125.664 10.6502 126.263 11.1014C126.861 11.5428 127.16 12.2735 127.16 13.2937V19.5762ZM123.1 20.0471C123.483 20.0471 123.875 19.9588 124.277 19.7822C124.679 19.5959 125.027 19.3408 125.321 19.0171V15.7066C123.978 15.7655 122.953 16.0401 122.247 16.5306C121.541 17.0112 121.188 17.6292 121.188 18.3845C121.188 18.9632 121.374 19.385 121.747 19.6498C122.12 19.9147 122.571 20.0471 123.1 20.0471ZM133.646 19.8411L135.499 20.562V20.974H129.94V20.562L131.808 19.8411V7.14349L129.94 6.40783V5.99586L133.455 5.2749L133.646 5.48089V19.8411ZM142.177 10.4246C142.942 10.4246 143.628 10.557 144.236 10.8218C144.844 11.0769 145.359 11.4447 145.78 11.9253C146.202 12.3961 146.526 12.9651 146.751 13.6321C146.977 14.2893 147.089 15.02 147.089 15.8244C147.089 16.6287 146.982 17.3594 146.766 18.0166C146.54 18.6836 146.217 19.2526 145.795 19.7234C145.374 20.204 144.859 20.5768 144.251 20.8416C143.643 21.0966 142.952 21.2241 142.177 21.2241C141.402 21.2241 140.711 21.0966 140.103 20.8416C139.485 20.5768 138.966 20.204 138.544 19.7234C138.122 19.2526 137.804 18.6885 137.588 18.0314C137.362 17.3643 137.25 16.6287 137.25 15.8244C137.25 15.02 137.362 14.2893 137.588 13.6321C137.813 12.9651 138.137 12.3961 138.559 11.9253C138.98 11.4447 139.495 11.0769 140.103 10.8218C140.711 10.557 141.402 10.4246 142.177 10.4246ZM139.985 12.558C139.466 13.4016 139.206 14.4903 139.206 15.8244C139.206 16.4914 139.274 17.0995 139.412 17.6488C139.539 18.2079 139.73 18.6836 139.985 19.076C140.231 19.4782 140.539 19.792 140.912 20.0177C141.275 20.2334 141.696 20.3413 142.177 20.3413C142.657 20.3413 143.084 20.2334 143.457 20.0177C143.829 19.792 144.143 19.4782 144.398 19.076C144.663 18.6836 144.864 18.2079 145.001 17.6488C145.138 17.0995 145.207 16.4914 145.207 15.8244C145.207 15.1672 145.138 14.5639 145.001 14.0146C144.864 13.4555 144.663 12.9798 144.398 12.5874C144.143 12.1853 143.829 11.8714 143.457 11.6458C143.084 11.4202 142.657 11.3074 142.177 11.3074C141.226 11.3074 140.495 11.7242 139.985 12.558ZM152.443 19.8411L154.194 20.562V20.974H148.737V20.562L150.59 19.8411V12.2932L148.737 11.5575V11.1455L152.237 10.4246L152.443 10.6306V11.8518C152.914 11.4104 153.468 11.0621 154.105 10.8071C154.743 10.5521 155.37 10.4246 155.988 10.4246C156.89 10.4246 157.635 10.6992 158.224 11.2485C158.822 11.7978 159.121 12.6168 159.121 13.7056V19.8411L160.974 20.562V20.974H155.503V20.562L157.268 19.8411V14.3236C157.268 13.3525 157.096 12.6806 156.753 12.3079C156.41 11.9351 155.816 11.7488 154.973 11.7488C153.973 11.7488 153.13 12.0479 152.443 12.6463V19.8411Z" fill="#4A3F35"/>
<path d="M29.4857 11.4988C27.9094 6.01165 24.5059 2.04609 18.4192 0.548766C17.7056 0.373293 16.9835 0.130655 15.9666 0.345161C19.556 1.19369 22.3827 2.79827 24.3481 5.50844C27.4268 9.75426 28.4838 14.5103 27.9959 19.5895C27.9513 20.0537 28.0968 20.6164 27.6078 21.0471C26.8376 16.8692 25.6245 14.0257 24.2015 13.2198C26.7916 19.2481 26.9244 25.1164 23.4172 30.791C23.6148 30.9218 23.7259 30.8691 23.8204 30.7717C29.1943 25.2546 31.623 18.9383 29.4857 11.4988Z" fill="#B76B4B"/>
<path d="M14.8445 16.0336C12.6366 13.6237 10.417 11.2184 9.49988 8.042C9.45312 7.87989 9.41727 7.61404 9.14729 7.71496C8.87732 7.81624 8.97645 8.10916 9.01617 8.28534C9.30161 9.54741 9.62854 10.7986 10.2216 11.9752C11.2691 14.0527 12.7122 15.8841 14.184 17.7008C15.6738 19.5399 17.2441 21.3266 18.4287 23.3679C20.6497 27.1942 20.0177 28.4841 17.6336 31.9095C24.4332 28.9303 25.7244 25.1846 14.8445 16.0336ZM6.86411 13.2288C5.43901 14.9723 4.33766 16.6314 3.52422 18.4466C1.64881 22.6323 2.53256 26.1101 6.19796 29.0777C6.84442 29.6009 7.49053 30.1354 8.57465 30.5405C8.01677 29.8035 7.61603 29.2932 7.23638 28.7693C0.607931 22.857 6.86165 14.2564 6.86411 13.2288ZM15.4003 12.2083C12.961 10.39 11.215 8.14679 10.4933 5.2608C10.3446 4.66651 10.2261 4.06589 10.0936 3.46809L9.86652 3.47442C9.85141 3.76207 9.81415 4.05042 9.82504 4.33701C9.90801 6.51478 10.5917 8.51426 11.852 10.3421C13.4019 12.5902 15.4762 14.3963 17.4793 16.2625C19.7962 18.4216 22.007 20.6515 23.0071 23.6809C23.0148 23.7045 23.1132 23.7013 23.2412 23.7224C23.0313 20.7569 22.0977 18.095 19.9596 15.8676C18.6091 14.4607 16.9664 13.3758 15.4003 12.2083ZM9.25592 0.507901C5.06041 0.450933 -1.07027 7.73184 0.581567 12.8701C1.05719 10.3544 1.97292 8.00402 3.3685 5.83399C4.79114 3.62176 6.56566 1.72355 9.25592 0.507901ZM5.38417 11.5448C5.47803 11.3886 5.62215 11.1917 5.41334 11.0521C5.20207 10.9104 5.05795 11.1186 4.92894 11.2431C4.26419 11.8824 3.58363 12.5087 2.95088 13.175C0.524619 15.7294 0.158676 18.6186 1.46988 21.7634C1.41469 18.7768 2.62677 16.1648 4.11796 13.6332C4.531 12.932 4.96549 12.2425 5.38417 11.5448Z" fill="#B76B4B"/>
</g>
<defs>
<clipPath id="clip0_492_448">
<rect width="161" height="32" fill="white"/>
</clipPath>
</defs>
</svg>
